<svg width="235" height="60" viewBox="0 0 235 60" fill="none" xmlns="http://www.w3.org/2000/svg">
<path d="M1.64062 41V13.6562H7.14845V41H1.64062ZM9.25781 28.5391V23.1484H10.5469C11.6667 23.1484 12.3177 22.6536 12.5 21.6641C12.526 21.5078 12.5391 21.3385 12.5391 21.1562C12.3828 19.8802 11.7188 19.1901 10.5469 19.0859H9.25781V13.6562H10.7031C15.5729 13.8385 18.0469 16.2865 18.125 21C18.125 24.4896 17.1224 26.7422 15.1172 27.7578C13.9974 28.3047 12.526 28.5651 10.7031 28.5391C10.625 28.5391 10.1432 28.5391 9.25781 28.5391ZM43.5703 13.6562H49.1953L55.4062 34.8281L53.3359 41H51.5L43.5703 13.6562ZM53.6094 20.9219L55.7578 13.6562H61.3828L67.5547 34.8281L65.5234 41H63.6875L58.5312 23.1875C58.2708 24.0208 57.8932 25.2839 57.3984 26.9766C57.0339 28.1745 56.7604 29.0729 56.5781 29.6719H56.1875L53.6094 20.9219ZM65.9531 20.9219L68.1016 13.6562H73.7266L68.9219 29.6719H68.5312L65.9531 20.9219ZM77.7578 41V13.6562H91.9766V19.125H83.2656V24.6719H88.3047V30.1797H83.2656V35.4922H91.9766V41H77.7578ZM97.1016 41V13.6562H102.609V41H97.1016ZM104.719 29.8281V24.9453H105.227C106.893 24.9453 107.961 24.2682 108.43 22.9141C108.534 22.5755 108.586 22.224 108.586 21.8594C108.586 20.4792 107.935 19.5547 106.633 19.0859C106.216 18.9297 105.747 18.8516 105.227 18.8516H104.719V13.6562H105.578C108.99 13.7083 111.385 14.9193 112.766 17.2891C113.417 18.4089 113.742 19.6719 113.742 21.0781C113.716 23.7604 112.831 25.8177 111.086 27.25C112.388 28.0833 113.221 29.5938 113.586 31.7812C113.612 32.0417 113.638 32.2891 113.664 32.5234L114.328 41H109.25L108.664 34.0469C108.456 31.9635 107.857 30.6745 106.867 30.1797C106.398 29.9714 105.826 29.8542 105.148 29.8281H104.719ZM118.828 41V19.5547H119.18L120.391 22.5625V41H118.828ZM118.828 14.5156V13.6562H120.273L130.586 38.6953L139.023 19.6328H139.414V22.6797L131.328 41H129.844L118.828 14.5156ZM141.172 41V13.6562H142.734V41H141.172ZM147.859 35.4922V26.3125C147.859 25.1146 148.406 23.9557 149.5 22.8359C150.776 21.5078 152.365 20.8438 154.266 20.8438V22.3281C152.443 22.3281 151.049 23.1094 150.086 24.6719C149.643 25.401 149.422 26.1172 149.422 26.8203V34.9844C149.422 36.026 149.93 37.0547 150.945 38.0703C151.935 39.0599 153.042 39.5547 154.266 39.5547V41.0391C151.87 41.0391 150.034 40.0755 148.758 38.1484C148.159 37.2109 147.859 36.3255 147.859 35.4922ZM155.867 41.0391V39.5547C157.534 39.5547 158.849 38.7865 159.812 37.25C160.281 36.4948 160.516 35.7656 160.516 35.0625V26.8203C160.516 25.6745 160.021 24.6068 159.031 23.6172C158.12 22.7578 157.065 22.3281 155.867 22.3281V20.8438C158.185 20.8438 159.956 21.7943 161.18 23.6953C161.779 24.6068 162.078 25.4792 162.078 26.3125V35.4922C162.078 36.7161 161.544 37.901 160.477 39.0469C159.253 40.349 157.716 41.013 155.867 41.0391ZM167.047 41V26.2734C167.047 25.0495 167.607 23.8646 168.727 22.7188C170.029 21.3906 171.63 20.7266 173.531 20.7266V22.2891C172.021 22.2891 170.732 22.875 169.664 24.0469C168.961 24.8281 168.609 25.6354 168.609 26.4688V41H167.047ZM175.172 22.2891V20.7266C177.516 20.7266 179.339 21.6771 180.641 23.5781C181.318 24.5417 181.656 25.4401 181.656 26.2734V41H180.094V26.4688C180.094 25.6094 179.651 24.724 178.766 23.8125C177.75 22.8229 176.552 22.3151 175.172 22.2891ZM186.781 18.2266C186.781 17.7057 187.042 17.3672 187.562 17.2109C187.693 17.1849 187.797 17.1719 187.875 17.1719C188.396 17.1719 188.734 17.4193 188.891 17.9141C188.917 18.0182 188.93 18.1224 188.93 18.2266C188.93 18.7474 188.682 19.0859 188.188 19.2422C188.083 19.2682 187.979 19.2812 187.875 19.2812C187.328 19.2812 186.977 19.0339 186.82 18.5391C186.794 18.4089 186.781 18.3047 186.781 18.2266ZM187.094 41V20.8438H188.656V41H187.094ZM193.352 22.8359V21.3125H195.812V13.6562H197.375V21.3125H199.836V22.8359H197.375V34.7891C197.375 37.0807 198.091 38.526 199.523 39.125C200.201 39.3854 201.034 39.5156 202.023 39.5156H202.062L202.414 41H201.828C198.703 40.974 196.815 39.776 196.164 37.4062C195.93 36.599 195.812 35.6094 195.812 34.4375V22.8359H193.352ZM205.898 35.4922V26.3125C205.898 25.1146 206.445 23.9557 207.539 22.8359C208.815 21.5078 210.404 20.8438 212.305 20.8438V22.3281C210.482 22.3281 209.089 23.1094 208.125 24.6719C207.682 25.401 207.461 26.1172 207.461 26.8203V34.9844C207.461 36.026 207.969 37.0547 208.984 38.0703C209.974 39.0599 211.081 39.5547 212.305 39.5547V41.0391C209.909 41.0391 208.073 40.0755 206.797 38.1484C206.198 37.2109 205.898 36.3255 205.898 35.4922ZM213.906 41.0391V39.5547C215.573 39.5547 216.888 38.7865 217.852 37.25C218.32 36.4948 218.555 35.7656 218.555 35.0625V26.8203C218.555 25.6745 218.06 24.6068 217.07 23.6172C216.159 22.7578 215.104 22.3281 213.906 22.3281V20.8438C216.224 20.8438 217.995 21.7943 219.219 23.6953C219.818 24.6068 220.117 25.4792 220.117 26.3125V35.4922C220.117 36.7161 219.583 37.901 218.516 39.0469C217.292 40.349 215.755 41.013 213.906 41.0391ZM225.242 41V20.8438H226.805V24.1641C227.247 23.0703 228.068 22.1979 229.266 21.5469C230.099 21.1042 230.971 20.8828 231.883 20.8828H231.922L231.531 22.3281C230.281 22.3281 229.148 23.1094 228.133 24.6719C227.247 26.0521 226.805 27.4844 226.805 28.9688V41H225.242Z" fill="white"/>
<path d="M37.221 28.471C33.5209 26.2313 28.5172 23.6477 22.5542 21.6582C21.4452 22.9175 20.5898 24.4048 20.0703 26.043C24.2124 28.0885 29.9236 30.9704 34.604 33.3432C35.7091 31.6138 36.5627 29.9601 37.221 28.471Z" fill="white"/>
<path d="M37.7556 28.3026C38.9854 29.0553 40.0656 29.7661 40.9822 30.3983C41.2244 29.593 41.4082 28.8245 41.5452 28.1102C41.6765 27.4257 41.7713 26.7664 41.838 26.1401C41.0035 25.2862 40.1725 24.4858 39.3523 23.7354C39.0789 24.7398 38.7228 25.8637 38.2575 27.0715C38.1055 27.4659 37.9386 27.8773 37.7556 28.3026Z" fill="white"/>
<path d="M34.9824 33.535C36.3643 34.2357 37.6468 34.8873 38.7619 35.4546C39.7099 33.8587 40.3798 32.2843 40.8508 30.8208C39.9293 30.1821 38.8367 29.4603 37.585 28.6926C36.9269 30.1754 36.0767 31.8182 34.9824 33.535Z" fill="white"/>
<path d="M32.0615 17.5063C34.1284 18.8699 36.5606 20.6657 39.1201 22.9561C39.3778 21.9235 39.5407 21.051 39.6437 20.3844C37.5857 18.6476 34.9479 17.5789 32.0615 17.5063Z" fill="white"/>
<path d="M41.2137 31.0737C40.7387 32.5225 40.0711 34.0746 39.1399 35.6466C40.1626 36.1669 41.024 36.6058 41.6687 36.9344C42.5493 35.7209 43.2141 34.3411 43.6032 32.8492C43.0796 32.4347 42.2762 31.821 41.2137 31.0737Z" fill="white"/>
<path d="M36.5215 39.2337C37.262 39.4142 38.0286 39.5866 38.8205 39.7498C39.8002 39.0559 40.6729 38.2222 41.4104 37.277C40.7677 36.9493 39.9195 36.5172 38.921 36.0093C38.2556 37.087 37.4639 38.1705 36.5215 39.2337Z" fill="white"/>
<path d="M34.3726 33.6993C29.7261 31.3437 24.0727 28.4909 19.9502 26.4543C19.6578 27.5031 19.4983 28.6071 19.4983 29.7492C19.4983 30.3797 19.5461 30.999 19.6381 31.6039C21.4262 33.053 25.1485 35.5931 31.331 37.7196C32.5053 36.3663 33.5116 35.0133 34.3726 33.6993Z" fill="white"/>
<path d="M41.9634 28.1727C41.816 28.9445 41.616 29.7777 41.3474 30.6527C42.3683 31.3673 43.1622 31.9672 43.7097 32.396C43.8975 31.5434 43.9995 30.6587 43.9995 29.7496C43.9995 29.287 43.9716 28.8311 43.9216 28.3817C43.3545 27.7413 42.786 27.1247 42.2184 26.5337C42.1547 27.0603 42.0712 27.6082 41.9634 28.1727Z" fill="white"/>
<path d="M31.0323 38.0617C25.3017 36.069 21.6769 33.7241 19.75 32.23C20.6253 36.4866 23.7099 39.9341 27.7515 41.3293C28.9647 40.2559 30.0558 39.1602 31.0323 38.0617Z" fill="white"/>
<path d="M35.7323 39.4718C34.199 39.0798 32.7783 38.6547 31.4643 38.21C30.4968 39.3086 29.4164 40.4052 28.2163 41.4805C29.3351 41.817 30.5205 42 31.7491 42C32.1884 42 32.6221 41.9757 33.0496 41.9306C34.0514 41.1364 34.9419 40.3122 35.7323 39.4718Z" fill="white"/>
<path d="M37.3911 28.0805C37.5624 27.6802 37.7199 27.292 37.8634 26.9197C38.3561 25.6411 38.7252 24.4587 39.0016 23.4167C36.1746 20.8686 33.4972 18.9267 31.2953 17.51C27.9792 17.6309 25.0011 19.069 22.866 21.3178C28.7569 23.3014 33.7098 25.8561 37.3911 28.0805Z" fill="white"/>
<path d="M38.5425 35.8169C37.4231 35.2476 36.1371 34.5942 34.7516 33.8916C33.9027 35.1907 32.9145 36.5277 31.7637 37.8661C33.0844 38.308 34.514 38.7299 36.0568 39.1182C37.0387 38.031 37.8583 36.9209 38.5425 35.8169Z" fill="white"/>
<path d="M33.8584 41.815C35.4817 41.5331 36.9945 40.9323 38.3315 40.0785C37.5986 39.9227 36.8867 39.7595 36.1981 39.5889C35.4994 40.3463 34.7221 41.0915 33.8584 41.815Z" fill="white"/>
<path d="M39.4744 23.2751C40.2709 23.9989 41.0785 24.7712 41.89 25.5917C41.9711 24.6222 41.986 23.745 41.9678 22.9938C41.4124 22.1552 40.7576 21.3886 40.0186 20.7119C39.9043 21.4008 39.7326 22.2689 39.4744 23.2751Z" fill="white"/>
<path d="M42.2776 25.9871C42.7889 26.5134 43.301 27.0606 43.8126 27.6264C43.5662 26.2174 43.0799 24.8918 42.396 23.6924C42.3923 24.3841 42.3594 25.1552 42.2776 25.9871Z" fill="white"/>
<path d="M21.0463 35.9284C22.1479 37.8364 21.6838 39.8143 21.6838 39.8143C21.6838 39.8143 23.6616 39.3502 25.5697 40.4518C25.6859 40.5188 25.7972 40.5893 25.9037 40.662L34.9192 29.7491L30.1419 25.9894L37.3243 18.6387C35.8941 17.5247 35.433 16 35.433 16C35.433 16 33.9522 17.3908 31.749 17.3908C29.5457 17.3908 28.065 16 28.065 16C28.065 16 27.4779 17.9449 25.5699 19.0465C23.6618 20.1481 21.684 19.684 21.684 19.684C21.684 19.684 22.1481 21.6618 21.0465 23.5699C19.9449 25.4779 18 26.065 18 26.065C18 26.065 19.3908 27.5457 19.3908 29.749C19.3908 31.9522 18 33.433 18 33.433C18 33.433 19.9447 34.0203 21.0463 35.9284Z" fill="white"/>
<path d="M30.7448 26.4639C26.0921 30.8642 21.6608 33.2005 19.4546 34.1948C19.9986 34.5836 20.5937 35.1444 21.0464 35.9286C22.148 37.8367 21.6839 39.8145 21.6839 39.8145C21.6839 39.8145 23.6617 39.3504 25.5698 40.452C25.686 40.519 25.7972 40.5895 25.9038 40.6622L34.9193 29.7493L30.7448 26.4639Z" fill="white"/>
<path d="M39.1418 29.3327C39.1329 29.2631 39.0903 29.2026 39.0277 29.1708L33.3728 26.3008L38.4442 17.7863C38.4962 17.6992 38.4787 17.5873 38.4027 17.5201C38.3267 17.4528 38.2136 17.4492 38.1335 17.5112L26.6552 26.4033C26.5983 26.4474 26.5677 26.5175 26.5742 26.5891C26.5807 26.6608 26.6232 26.7244 26.6869 26.7575L32.1333 29.5934L25.2798 41.0898C25.2266 41.1791 25.2462 41.2938 25.3261 41.3602C25.3652 41.3929 25.4132 41.4091 25.4612 41.4091C25.5111 41.4091 25.5609 41.3917 25.6005 41.3566L39.0719 29.5177C39.1244 29.4715 39.1507 29.4023 39.1418 29.3327Z" fill="#74C45E"/>
</svg>
