<svg width="16" height="16" viewBox="0 0 16 16" fill="none" xmlns="http://www.w3.org/2000/svg">
<path d="M14.362 4.736C14.3718 4.87713 14.3717 5.01813 14.3717 5.1605C14.3717 9.498 11.0696 14.5005 5.03175 14.5005V14.498C3.24801 14.5005 1.50124 13.9896 0 13.0263C0.259375 13.0575 0.52 13.0731 0.78125 13.0738C2.25964 13.0749 3.6955 12.5791 4.85813 11.6659C4.17312 11.6529 3.50928 11.4263 2.95943 11.0175C2.40957 10.6088 2.00119 10.0385 1.79138 9.38625C2.2835 9.48125 2.7905 9.46163 3.2735 9.32963C1.742 9.02025 0.64025 7.67475 0.64025 6.11213V6.0705C1.09679 6.32484 1.60776 6.46575 2.13013 6.48138C0.6875 5.51738 0.243125 3.5985 1.11413 2.09838C1.93824 3.11246 2.96645 3.94185 4.13198 4.53266C5.29751 5.12348 6.57428 5.46252 7.87937 5.52775C7.74929 4.9676 7.76854 4.38311 7.93521 3.83273C8.10188 3.28235 8.41013 2.78538 8.82913 2.3915C10.1513 1.14863 12.2306 1.21238 13.4734 2.53388C14.2085 2.38872 14.9135 2.11918 15.558 1.73688C15.3129 2.49696 14.8001 3.14217 14.115 3.5525C14.7657 3.47578 15.4012 3.30154 16 3.03563C15.5595 3.69533 15.0048 4.27114 14.362 4.736Z" fill="#1D9BF0"/>
</svg>
